<svg xmlns="http://www.w3.org/2000/svg" viewBox="0 0 840 130" fill="none">
  <style>
    .sh{fill:url(#gL)}
    .sb{stroke:rgba(250,249,247,0.5);fill:none}
    .sc{fill:#c2c7a1}
    .st{fill:rgba(42,40,37,0.05)}
    .tx{fill:#2d3a20}
    .ts{fill:rgba(45,58,32,0.55)}
    .tg{fill:rgba(45,58,32,0.10)}
    .sn{fill:rgba(42,40,37,0.018)}
    .vn{stroke:rgba(42,40,37,0.12);fill:none}
    .ac{fill:#ff6b35}
    .bh{fill:rgba(255,255,255,0.22)}
    .em{fill:rgba(42,40,37,0.04)}
    @media(prefers-color-scheme:dark){
      .sh{fill:url(#gD)}
      .sb{stroke:rgba(255,255,255,0.05)}
      .sc{fill:#181c12}
      .st{fill:rgba(0,0,0,0.12)}
      .tx{fill:#8fa06a}
      .ts{fill:rgba(143,160,106,0.55)}
      .tg{fill:rgba(143,160,106,0.08)}
      .sn{fill:rgba(255,255,255,0.012)}
      .vn{stroke:rgba(255,255,255,0.06)}
      .em{fill:rgba(255,255,255,0.02)}
    }
    @keyframes p{0%,100%{opacity:1}50%{opacity:.3}}
    @keyframes c{0%,100%{opacity:1}50%{opacity:0}}
    @keyframes fi{from{opacity:0}to{opacity:1}}
    .p{animation:p 2.4s ease-in-out infinite}
    .c{animation:c 1.1s step-end infinite}
    .f1{animation:fi .5s ease 0.12s both}
    .f2{animation:fi .5s ease 0.24s both}
    .f3{animation:fi .5s ease 0.36s both}
    .f4{animation:fi .5s ease 0.48s both}
    .f5{animation:fi .5s ease 0.60s both}
    .f6{animation:fi .5s ease 0.72s both}
    .f7{animation:fi .5s ease 0.84s both}
    .m{font-family:'SF Mono','Cascadia Code','JetBrains Mono',Consolas,monospace}
    .s{font-family:-apple-system,BlinkMacSystemFont,'Segoe UI',Helvetica,sans-serif}
  </style>
  <defs>
    <linearGradient id="gL" x1="0" y1="0" x2=".7" y2="1">
      <stop offset="0%" stop-color="#eae7df"/><stop offset="100%" stop-color="#dcd7cd"/>
    </linearGradient>
    <linearGradient id="gD" x1="0" y1="0" x2=".7" y2="1">
      <stop offset="0%" stop-color="#2b2926"/><stop offset="100%" stop-color="#222120"/>
    </linearGradient>
  </defs>
    <rect class="sh" width="840" height="130" rx="20"/>
    <rect class="sb" x=".5" y=".5" width="839" height="129" rx="19.5" stroke-width="1"/>
    <line class="vn" x1="10" y1="50" x2="10" y2="80" stroke-width="1.5" stroke-linecap="round"/>
    <line class="vn" x1="13" y1="40" x2="13" y2="90" stroke-width="1" stroke-linecap="round"/>
    <text class="m tg f1" x="36" y="36" font-size="10" letter-spacing="2.5">RAMS.04 — CONNECT</text>
    <circle class="ac p f1" cx="808" cy="32" r="3.5"/>
    <rect class="sc" x="32" y="50" width="776" height="52" rx="10"/>
    <rect class="st" x="32" y="50" width="776" height="12" rx="10"/>
    <rect class="sc" x="32" y="56" width="776" height="6"/>
    <rect class="sn" x="32" y="50" width="776" height="4"/>
    <rect class="sn" x="32" y="58" width="776" height="4"/>
    <rect class="sn" x="32" y="66" width="776" height="4"/>
    <rect class="sn" x="32" y="74" width="776" height="4"/>
    <rect class="sn" x="32" y="82" width="776" height="4"/>
    <rect class="sn" x="32" y="90" width="776" height="4"/>
    <rect class="sn" x="32" y="98" width="776" height="4"/>
    <circle class="ac f2" cx="46" cy="72" r="2.5"/>
    <text class="m tg f2" x="54" y="68" font-size="8" letter-spacing="1.5">LINKEDIN</text>
    <text class="m tx f2" x="54" y="84" font-size="10.5" letter-spacing=".3">in/jydu666</text>
    <line class="vn" x1="226" y1="58" x2="226" y2="94" stroke-width=".5"/>
    <circle class="ac f3" cx="240" cy="72" r="2.5"/>
    <text class="m tg f3" x="248" y="68" font-size="8" letter-spacing="1.5">ORCID</text>
    <text class="m tx f3" x="248" y="84" font-size="10.5" letter-spacing=".3">0000-0001-8625-5124</text>
    <line class="vn" x1="420" y1="58" x2="420" y2="94" stroke-width=".5"/>
    <circle class="ac f4" cx="434" cy="72" r="2.5"/>
    <text class="m tg f4" x="442" y="68" font-size="8" letter-spacing="1.5">RESEARCHGATE</text>
    <text class="m tx f4" x="442" y="84" font-size="10.5" letter-spacing=".3">Seven-Du</text>
    <line class="vn" x1="614" y1="58" x2="614" y2="94" stroke-width=".5"/>
    <circle class="ac f5" cx="628" cy="72" r="2.5"/>
    <text class="m tg f5" x="636" y="68" font-size="8" letter-spacing="1.5">EMAIL</text>
    <text class="m tx f5" x="636" y="84" font-size="10.5" letter-spacing=".3">max.zhuang.yan@gmail.com</text>
</svg>