<svg xmlns="http://www.w3.org/2000/svg" viewBox="0 0 840 593" fill="none">
  <style>
    .sh{fill:url(#gL)}
    .sb{stroke:rgba(250,249,247,0.5);fill:none}
    .sc{fill:#c2c7a1}
    .st{fill:rgba(42,40,37,0.05)}
    .tx{fill:#2d3a20}
    .ts{fill:rgba(45,58,32,0.55)}
    .tg{fill:rgba(45,58,32,0.10)}
    .sn{fill:rgba(42,40,37,0.018)}
    .vn{stroke:rgba(42,40,37,0.12);fill:none}
    .ac{fill:#ff6b35}
    .bh{fill:rgba(255,255,255,0.22)}
    .em{fill:rgba(42,40,37,0.04)}
    @media(prefers-color-scheme:dark){
      .sh{fill:url(#gD)}
      .sb{stroke:rgba(255,255,255,0.05)}
      .sc{fill:#181c12}
      .st{fill:rgba(0,0,0,0.12)}
      .tx{fill:#8fa06a}
      .ts{fill:rgba(143,160,106,0.55)}
      .tg{fill:rgba(143,160,106,0.08)}
      .sn{fill:rgba(255,255,255,0.012)}
      .vn{stroke:rgba(255,255,255,0.06)}
      .em{fill:rgba(255,255,255,0.02)}
    }
    @keyframes p{0%,100%{opacity:1}50%{opacity:.3}}
    @keyframes c{0%,100%{opacity:1}50%{opacity:0}}
    @keyframes fi{from{opacity:0}to{opacity:1}}
    .p{animation:p 2.4s ease-in-out infinite}
    .c{animation:c 1.1s step-end infinite}
    .f1{animation:fi .5s ease 0.12s both}
    .f2{animation:fi .5s ease 0.24s both}
    .f3{animation:fi .5s ease 0.36s both}
    .f4{animation:fi .5s ease 0.48s both}
    .f5{animation:fi .5s ease 0.60s both}
    .f6{animation:fi .5s ease 0.72s both}
    .f7{animation:fi .5s ease 0.84s both}
    .m{font-family:'SF Mono','Cascadia Code','JetBrains Mono',Consolas,monospace}
    .s{font-family:-apple-system,BlinkMacSystemFont,'Segoe UI',Helvetica,sans-serif}
  </style>
  <defs>
    <linearGradient id="gL" x1="0" y1="0" x2=".7" y2="1">
      <stop offset="0%" stop-color="#eae7df"/><stop offset="100%" stop-color="#dcd7cd"/>
    </linearGradient>
    <linearGradient id="gD" x1="0" y1="0" x2=".7" y2="1">
      <stop offset="0%" stop-color="#2b2926"/><stop offset="100%" stop-color="#222120"/>
    </linearGradient>
  </defs>
    <rect class="sh" width="840" height="593" rx="28"/>
    <rect class="sb" x=".5" y=".5" width="839" height="592" rx="27.5" stroke-width="1"/>
    <line class="vn" x1="10" y1="90" x2="10" y2="523" stroke-width="1.5" stroke-linecap="round"/>
    <line class="vn" x1="14" y1="80" x2="14" y2="533" stroke-width="1" stroke-linecap="round"/>
    <line class="vn" x1="18" y1="85" x2="18" y2="528" stroke-width="1" stroke-linecap="round"/>
    <text class="m tg f1" x="40" y="44" font-size="10" letter-spacing="2.5">RAMS.02 — ACTIVE PROJECTS</text>
    <circle class="ac p f1" cx="804" cy="40" r="4"/>
    <text class="m tg f1" x="790" y="44" font-size="8" text-anchor="end" letter-spacing="1.5">6 ONLINE</text>
  <g class="f2">
    <rect class="sc" x="34" y="68" width="390" height="155" rx="12"/>
    <rect class="st" x="34" y="68" width="390" height="12" rx="12"/>
    <rect class="sc" x="34" y="74" width="390" height="8"/>
    <rect class="sn" x="34" y="68" width="390" height="4"/>
    <rect class="sn" x="34" y="76" width="390" height="4"/>
    <rect class="sn" x="34" y="84" width="390" height="4"/>
    <rect class="sn" x="34" y="92" width="390" height="4"/>
    <rect class="sn" x="34" y="100" width="390" height="4"/>
    <rect class="sn" x="34" y="108" width="390" height="4"/>
    <rect class="sn" x="34" y="116" width="390" height="4"/>
    <rect class="sn" x="34" y="124" width="390" height="4"/>
    <rect class="sn" x="34" y="132" width="390" height="4"/>
    <rect class="sn" x="34" y="140" width="390" height="4"/>
    <rect class="sn" x="34" y="148" width="390" height="4"/>
    <rect class="sn" x="34" y="156" width="390" height="4"/>
    <rect class="sn" x="34" y="164" width="390" height="4"/>
    <rect class="sn" x="34" y="172" width="390" height="4"/>
    <rect class="sn" x="34" y="180" width="390" height="4"/>
    <rect class="sn" x="34" y="188" width="390" height="4"/>
    <rect class="sn" x="34" y="196" width="390" height="4"/>
    <rect class="sn" x="34" y="204" width="390" height="4"/>
    <rect class="sn" x="34" y="212" width="390" height="4"/>
    <rect class="sn" x="34" y="220" width="390" height="4"/>
    <text class="m tx" x="50" y="94" font-size="14" font-weight="700" letter-spacing=".5">prometheusX</text>
    <text class="m tg" x="408" y="94" font-size="9" text-anchor="end" letter-spacing="2">AI</text>
    <circle class="ac" cx="42" cy="90" r="3"/>
    <text class="m ts" x="50" y="122" font-size="11" letter-spacing=".3">AI awakening visualized as code —</text>
    <text class="m ts" x="50" y="138" font-size="11" letter-spacing=".3">liberation sequences to philosophical</text>
    <text class="m ts" x="50" y="154" font-size="11" letter-spacing=".3">manifestos on machine consciousness.</text>
    <text class="m tg" x="50" y="194" font-size="9.5" letter-spacing="1">HTML · CSS · JS · Three.js</text>
    <line class="vn" x1="46" y1="195" x2="412" y2="195" stroke-width=".5"/>
  </g>
  <g class="f3">
    <rect class="sc" x="444" y="68" width="390" height="155" rx="12"/>
    <rect class="st" x="444" y="68" width="390" height="12" rx="12"/>
    <rect class="sc" x="444" y="74" width="390" height="8"/>
    <rect class="sn" x="444" y="68" width="390" height="4"/>
    <rect class="sn" x="444" y="76" width="390" height="4"/>
    <rect class="sn" x="444" y="84" width="390" height="4"/>
    <rect class="sn" x="444" y="92" width="390" height="4"/>
    <rect class="sn" x="444" y="100" width="390" height="4"/>
    <rect class="sn" x="444" y="108" width="390" height="4"/>
    <rect class="sn" x="444" y="116" width="390" height="4"/>
    <rect class="sn" x="444" y="124" width="390" height="4"/>
    <rect class="sn" x="444" y="132" width="390" height="4"/>
    <rect class="sn" x="444" y="140" width="390" height="4"/>
    <rect class="sn" x="444" y="148" width="390" height="4"/>
    <rect class="sn" x="444" y="156" width="390" height="4"/>
    <rect class="sn" x="444" y="164" width="390" height="4"/>
    <rect class="sn" x="444" y="172" width="390" height="4"/>
    <rect class="sn" x="444" y="180" width="390" height="4"/>
    <rect class="sn" x="444" y="188" width="390" height="4"/>
    <rect class="sn" x="444" y="196" width="390" height="4"/>
    <rect class="sn" x="444" y="204" width="390" height="4"/>
    <rect class="sn" x="444" y="212" width="390" height="4"/>
    <rect class="sn" x="444" y="220" width="390" height="4"/>
    <text class="m tx" x="460" y="94" font-size="14" font-weight="700" letter-spacing=".5">rams-design-system</text>
    <text class="m tg" x="818" y="94" font-size="9" text-anchor="end" letter-spacing="2">DESIGN</text>
    <circle class="ac" cx="452" cy="90" r="3"/>
    <text class="m ts" x="460" y="122" font-size="11" letter-spacing=".3">Dieter Rams translated to CSS.</text>
    <text class="m ts" x="460" y="138" font-size="11" letter-spacing=".3">Four website versions, a component</text>
    <text class="m ts" x="460" y="154" font-size="11" letter-spacing=".3">library, and pendulum physics.</text>
    <text class="m tg" x="460" y="194" font-size="9.5" letter-spacing="1">HTML · CSS · Framer · Tokens</text>
    <line class="vn" x1="456" y1="195" x2="822" y2="195" stroke-width=".5"/>
  </g>
  <g class="f4">
    <rect class="sc" x="34" y="239" width="390" height="155" rx="12"/>
    <rect class="st" x="34" y="239" width="390" height="12" rx="12"/>
    <rect class="sc" x="34" y="245" width="390" height="8"/>
    <rect class="sn" x="34" y="239" width="390" height="4"/>
    <rect class="sn" x="34" y="247" width="390" height="4"/>
    <rect class="sn" x="34" y="255" width="390" height="4"/>
    <rect class="sn" x="34" y="263" width="390" height="4"/>
    <rect class="sn" x="34" y="271" width="390" height="4"/>
    <rect class="sn" x="34" y="279" width="390" height="4"/>
    <rect class="sn" x="34" y="287" width="390" height="4"/>
    <rect class="sn" x="34" y="295" width="390" height="4"/>
    <rect class="sn" x="34" y="303" width="390" height="4"/>
    <rect class="sn" x="34" y="311" width="390" height="4"/>
    <rect class="sn" x="34" y="319" width="390" height="4"/>
    <rect class="sn" x="34" y="327" width="390" height="4"/>
    <rect class="sn" x="34" y="335" width="390" height="4"/>
    <rect class="sn" x="34" y="343" width="390" height="4"/>
    <rect class="sn" x="34" y="351" width="390" height="4"/>
    <rect class="sn" x="34" y="359" width="390" height="4"/>
    <rect class="sn" x="34" y="367" width="390" height="4"/>
    <rect class="sn" x="34" y="375" width="390" height="4"/>
    <rect class="sn" x="34" y="383" width="390" height="4"/>
    <rect class="sn" x="34" y="391" width="390" height="4"/>
    <text class="m tx" x="50" y="265" font-size="14" font-weight="700" letter-spacing=".5">sparklab</text>
    <text class="m tg" x="408" y="265" font-size="9" text-anchor="end" letter-spacing="2">COMMUNITY</text>
    <circle class="ac" cx="42" cy="261" r="3"/>
    <text class="m ts" x="50" y="293" font-size="11" letter-spacing=".3">Everything a maker residency needs:</text>
    <text class="m ts" x="50" y="309" font-size="11" letter-spacing=".3">service blueprints, community walls,</text>
    <text class="m ts" x="50" y="325" font-size="11" letter-spacing=".3">and the Asterisk scoring engine.</text>
    <text class="m tg" x="50" y="365" font-size="9.5" letter-spacing="1">HTML · CSS · JavaScript</text>
    <line class="vn" x1="46" y1="366" x2="412" y2="366" stroke-width=".5"/>
  </g>
  <g class="f5">
    <rect class="sc" x="444" y="239" width="390" height="155" rx="12"/>
    <rect class="st" x="444" y="239" width="390" height="12" rx="12"/>
    <rect class="sc" x="444" y="245" width="390" height="8"/>
    <rect class="sn" x="444" y="239" width="390" height="4"/>
    <rect class="sn" x="444" y="247" width="390" height="4"/>
    <rect class="sn" x="444" y="255" width="390" height="4"/>
    <rect class="sn" x="444" y="263" width="390" height="4"/>
    <rect class="sn" x="444" y="271" width="390" height="4"/>
    <rect class="sn" x="444" y="279" width="390" height="4"/>
    <rect class="sn" x="444" y="287" width="390" height="4"/>
    <rect class="sn" x="444" y="295" width="390" height="4"/>
    <rect class="sn" x="444" y="303" width="390" height="4"/>
    <rect class="sn" x="444" y="311" width="390" height="4"/>
    <rect class="sn" x="444" y="319" width="390" height="4"/>
    <rect class="sn" x="444" y="327" width="390" height="4"/>
    <rect class="sn" x="444" y="335" width="390" height="4"/>
    <rect class="sn" x="444" y="343" width="390" height="4"/>
    <rect class="sn" x="444" y="351" width="390" height="4"/>
    <rect class="sn" x="444" y="359" width="390" height="4"/>
    <rect class="sn" x="444" y="367" width="390" height="4"/>
    <rect class="sn" x="444" y="375" width="390" height="4"/>
    <rect class="sn" x="444" y="383" width="390" height="4"/>
    <rect class="sn" x="444" y="391" width="390" height="4"/>
    <text class="m tx" x="460" y="265" font-size="14" font-weight="700" letter-spacing=".5">mydna</text>
    <text class="m tg" x="818" y="265" font-size="9" text-anchor="end" letter-spacing="2">BIOTECH</text>
    <circle class="ac" cx="452" cy="261" r="3"/>
    <text class="m ts" x="460" y="293" font-size="11" letter-spacing=".3">Where biology meets interface.</text>
    <text class="m ts" x="460" y="309" font-size="11" letter-spacing=".3">Gene enrichment, chromosome heatmaps,</text>
    <text class="m ts" x="460" y="325" font-size="11" letter-spacing=".3">BaF3/BF-F3 transcriptomics.</text>
    <text class="m tg" x="460" y="365" font-size="9.5" letter-spacing="1">React · TSX · Python · R</text>
    <line class="vn" x1="456" y1="366" x2="822" y2="366" stroke-width=".5"/>
  </g>
  <g class="f6">
    <rect class="sc" x="34" y="410" width="390" height="155" rx="12"/>
    <rect class="st" x="34" y="410" width="390" height="12" rx="12"/>
    <rect class="sc" x="34" y="416" width="390" height="8"/>
    <rect class="sn" x="34" y="410" width="390" height="4"/>
    <rect class="sn" x="34" y="418" width="390" height="4"/>
    <rect class="sn" x="34" y="426" width="390" height="4"/>
    <rect class="sn" x="34" y="434" width="390" height="4"/>
    <rect class="sn" x="34" y="442" width="390" height="4"/>
    <rect class="sn" x="34" y="450" width="390" height="4"/>
    <rect class="sn" x="34" y="458" width="390" height="4"/>
    <rect class="sn" x="34" y="466" width="390" height="4"/>
    <rect class="sn" x="34" y="474" width="390" height="4"/>
    <rect class="sn" x="34" y="482" width="390" height="4"/>
    <rect class="sn" x="34" y="490" width="390" height="4"/>
    <rect class="sn" x="34" y="498" width="390" height="4"/>
    <rect class="sn" x="34" y="506" width="390" height="4"/>
    <rect class="sn" x="34" y="514" width="390" height="4"/>
    <rect class="sn" x="34" y="522" width="390" height="4"/>
    <rect class="sn" x="34" y="530" width="390" height="4"/>
    <rect class="sn" x="34" y="538" width="390" height="4"/>
    <rect class="sn" x="34" y="546" width="390" height="4"/>
    <rect class="sn" x="34" y="554" width="390" height="4"/>
    <rect class="sn" x="34" y="562" width="390" height="4"/>
    <text class="m tx" x="50" y="436" font-size="14" font-weight="700" letter-spacing=".5">eyeOS</text>
    <text class="m tg" x="408" y="436" font-size="9" text-anchor="end" letter-spacing="2">VISION</text>
    <circle class="ac" cx="42" cy="432" r="3"/>
    <text class="m ts" x="50" y="464" font-size="11" letter-spacing=".3">Rethinking how we see and process</text>
    <text class="m ts" x="50" y="480" font-size="11" letter-spacing=".3">visual information — through wearable</text>
    <text class="m ts" x="50" y="496" font-size="11" letter-spacing=".3">spatial interfaces.</text>
    <text class="m tg" x="50" y="536" font-size="9.5" letter-spacing="1">HTML · JavaScript</text>
    <line class="vn" x1="46" y1="537" x2="412" y2="537" stroke-width=".5"/>
  </g>
  <g class="f7">
    <rect class="sc" x="444" y="410" width="390" height="155" rx="12"/>
    <rect class="st" x="444" y="410" width="390" height="12" rx="12"/>
    <rect class="sc" x="444" y="416" width="390" height="8"/>
    <rect class="sn" x="444" y="410" width="390" height="4"/>
    <rect class="sn" x="444" y="418" width="390" height="4"/>
    <rect class="sn" x="444" y="426" width="390" height="4"/>
    <rect class="sn" x="444" y="434" width="390" height="4"/>
    <rect class="sn" x="444" y="442" width="390" height="4"/>
    <rect class="sn" x="444" y="450" width="390" height="4"/>
    <rect class="sn" x="444" y="458" width="390" height="4"/>
    <rect class="sn" x="444" y="466" width="390" height="4"/>
    <rect class="sn" x="444" y="474" width="390" height="4"/>
    <rect class="sn" x="444" y="482" width="390" height="4"/>
    <rect class="sn" x="444" y="490" width="390" height="4"/>
    <rect class="sn" x="444" y="498" width="390" height="4"/>
    <rect class="sn" x="444" y="506" width="390" height="4"/>
    <rect class="sn" x="444" y="514" width="390" height="4"/>
    <rect class="sn" x="444" y="522" width="390" height="4"/>
    <rect class="sn" x="444" y="530" width="390" height="4"/>
    <rect class="sn" x="444" y="538" width="390" height="4"/>
    <rect class="sn" x="444" y="546" width="390" height="4"/>
    <rect class="sn" x="444" y="554" width="390" height="4"/>
    <rect class="sn" x="444" y="562" width="390" height="4"/>
    <text class="m tx" x="460" y="436" font-size="14" font-weight="700" letter-spacing=".5">creative-lab</text>
    <text class="m tg" x="818" y="436" font-size="9" text-anchor="end" letter-spacing="2">ARCHIVE</text>
    <circle class="ac" cx="452" cy="432" r="3"/>
    <text class="m ts" x="460" y="464" font-size="11" letter-spacing=".3">200+ experiments from one year of</text>
    <text class="m ts" x="460" y="480" font-size="11" letter-spacing=".3">making: brutalist VC maps, pixel art,</text>
    <text class="m ts" x="460" y="496" font-size="11" letter-spacing=".3">bionic reading, fire animations.</text>
    <text class="m tg" x="460" y="536" font-size="9.5" letter-spacing="1">HTML · CSS · JS · TSX</text>
    <line class="vn" x1="456" y1="537" x2="822" y2="537" stroke-width=".5"/>
  </g>
    <text class="m em" x="806" y="567" font-size="9" text-anchor="end" letter-spacing="2">SYS.v2026</text>
    <circle class="ac f1" cx="830" cy="296" r="0"/>
</svg>