<svg xmlns="http://www.w3.org/2000/svg" viewBox="0 0 840 260" fill="none">
  <style>
    .sh{fill:url(#gL)}
    .sb{stroke:rgba(250,249,247,0.5);fill:none}
    .sc{fill:#c2c7a1}
    .st{fill:rgba(42,40,37,0.05)}
    .tx{fill:#2d3a20}
    .ts{fill:rgba(45,58,32,0.55)}
    .tg{fill:rgba(45,58,32,0.10)}
    .sn{fill:rgba(42,40,37,0.018)}
    .vn{stroke:rgba(42,40,37,0.12);fill:none}
    .ac{fill:#ff6b35}
    .bh{fill:rgba(255,255,255,0.22)}
    .em{fill:rgba(42,40,37,0.04)}
    @media(prefers-color-scheme:dark){
      .sh{fill:url(#gD)}
      .sb{stroke:rgba(255,255,255,0.05)}
      .sc{fill:#181c12}
      .st{fill:rgba(0,0,0,0.12)}
      .tx{fill:#8fa06a}
      .ts{fill:rgba(143,160,106,0.55)}
      .tg{fill:rgba(143,160,106,0.08)}
      .sn{fill:rgba(255,255,255,0.012)}
      .vn{stroke:rgba(255,255,255,0.06)}
      .em{fill:rgba(255,255,255,0.02)}
    }
    @keyframes p{0%,100%{opacity:1}50%{opacity:.3}}
    @keyframes c{0%,100%{opacity:1}50%{opacity:0}}
    @keyframes fi{from{opacity:0}to{opacity:1}}
    .p{animation:p 2.4s ease-in-out infinite}
    .c{animation:c 1.1s step-end infinite}
    .f1{animation:fi .5s ease 0.12s both}
    .f2{animation:fi .5s ease 0.24s both}
    .f3{animation:fi .5s ease 0.36s both}
    .f4{animation:fi .5s ease 0.48s both}
    .f5{animation:fi .5s ease 0.60s both}
    .f6{animation:fi .5s ease 0.72s both}
    .f7{animation:fi .5s ease 0.84s both}
    .m{font-family:'SF Mono','Cascadia Code','JetBrains Mono',Consolas,monospace}
    .s{font-family:-apple-system,BlinkMacSystemFont,'Segoe UI',Helvetica,sans-serif}
  </style>
  <defs>
    <linearGradient id="gL" x1="0" y1="0" x2=".7" y2="1">
      <stop offset="0%" stop-color="#eae7df"/><stop offset="100%" stop-color="#dcd7cd"/>
    </linearGradient>
    <linearGradient id="gD" x1="0" y1="0" x2=".7" y2="1">
      <stop offset="0%" stop-color="#2b2926"/><stop offset="100%" stop-color="#222120"/>
    </linearGradient>
  </defs>
    <rect class="sh" width="840" height="260" rx="28"/>
    <rect class="sb" x=".5" y=".5" width="839" height="259" rx="27.5" stroke-width="1"/>
    <line class="vn" x1="10" y1="70" x2="10" y2="200" stroke-width="1.5" stroke-linecap="round"/>
    <line class="vn" x1="14" y1="60" x2="14" y2="210" stroke-width="1" stroke-linecap="round"/>
    <line class="vn" x1="18" y1="65" x2="18" y2="205" stroke-width="1" stroke-linecap="round"/>
    <text class="m tg f1" x="40" y="40" font-size="10" letter-spacing="2.5">RAMS.03 — STACK</text>
    <circle class="ac p f1" cx="804" cy="36" r="4"/>
    <rect class="sc" x="34" y="56" width="772" height="176" rx="12"/>
    <rect class="st" x="34" y="56" width="772" height="12" rx="12"/>
    <rect class="sc" x="34" y="62" width="772" height="8"/>
    <rect class="sn" x="34" y="56" width="772" height="4"/>
    <rect class="sn" x="34" y="64" width="772" height="4"/>
    <rect class="sn" x="34" y="72" width="772" height="4"/>
    <rect class="sn" x="34" y="80" width="772" height="4"/>
    <rect class="sn" x="34" y="88" width="772" height="4"/>
    <rect class="sn" x="34" y="96" width="772" height="4"/>
    <rect class="sn" x="34" y="104" width="772" height="4"/>
    <rect class="sn" x="34" y="112" width="772" height="4"/>
    <rect class="sn" x="34" y="120" width="772" height="4"/>
    <rect class="sn" x="34" y="128" width="772" height="4"/>
    <rect class="sn" x="34" y="136" width="772" height="4"/>
    <rect class="sn" x="34" y="144" width="772" height="4"/>
    <rect class="sn" x="34" y="152" width="772" height="4"/>
    <rect class="sn" x="34" y="160" width="772" height="4"/>
    <rect class="sn" x="34" y="168" width="772" height="4"/>
    <rect class="sn" x="34" y="176" width="772" height="4"/>
    <rect class="sn" x="34" y="184" width="772" height="4"/>
    <rect class="sn" x="34" y="192" width="772" height="4"/>
    <rect class="sn" x="34" y="200" width="772" height="4"/>
    <rect class="sn" x="34" y="208" width="772" height="4"/>
    <rect class="sn" x="34" y="216" width="772" height="4"/>
    <rect class="sn" x="34" y="224" width="772" height="4"/>
    <text class="m tg f2" x="50" y="86" font-size="10" letter-spacing="2">LANGUAGES</text>
    <text class="m tx f2" x="174" y="86" font-size="11.5" letter-spacing=".5">HTML · CSS · JavaScript · TypeScript · Python</text>
    <line class="vn f2" x1="46" y1="96" x2="794" y2="96" stroke-width=".5"/>
    <text class="m tg f3" x="50" y="114" font-size="10" letter-spacing="2">FRAMEWORKS</text>
    <text class="m tx f3" x="174" y="114" font-size="11.5" letter-spacing=".5">React · Three.js · D3.js · Framer</text>
    <line class="vn f3" x1="46" y1="124" x2="794" y2="124" stroke-width=".5"/>
    <text class="m tg f4" x="50" y="142" font-size="10" letter-spacing="2">SCIENCE</text>
    <text class="m tx f4" x="174" y="142" font-size="11.5" letter-spacing=".5">Bioinformatics · Transcriptomics · R</text>
    <line class="vn f4" x1="46" y1="152" x2="794" y2="152" stroke-width=".5"/>
    <text class="m tg f5" x="50" y="170" font-size="10" letter-spacing="2">DESIGN</text>
    <text class="m tx f5" x="174" y="170" font-size="11.5" letter-spacing=".5">Figma · Design Tokens · RAMS Method</text>
    <line class="vn f5" x1="46" y1="180" x2="794" y2="180" stroke-width=".5"/>
    <text class="m tg f6" x="50" y="198" font-size="10" letter-spacing="2">THINKING</text>
    <text class="m tx f6" x="174" y="198" font-size="11.5" letter-spacing=".5">AI Ethics · Generative Art · HCI</text>
    <text class="m em" x="806" y="234" font-size="9" text-anchor="end" letter-spacing="2">///</text>
</svg>